<svg width="19" height="19" viewBox="0 0 19 19" fill="none" xmlns="http://www.w3.org/2000/svg">
<path d="M14.25 6.33333C14.25 3.71291 12.1204 1.58333 9.5 1.58333C6.87958 1.58333 4.75 3.71291 4.75 6.33333C4.75 9.89583 9.5 15.0417 9.5 15.0417C9.5 15.0417 14.25 9.89583 14.25 6.33333ZM7.91667 6.33333C7.91667 5.4625 8.62917 4.74999 9.5 4.74999C10.3708 4.74999 11.0833 5.4625 11.0833 6.33333C11.0833 7.20416 10.3787 7.91666 9.5 7.91666C8.62917 7.91666 7.91667 7.20416 7.91667 6.33333ZM3.95833 15.8333V17.4167H15.0417V15.8333H3.95833Z" fill="#D4EDFF"/>
</svg>
