<svg width="122" height="122" viewBox="0 0 122 122" fill="none" xmlns="http://www.w3.org/2000/svg">
<g filter="url(#filter0_d)">
<path d="M38.125 66.7188V72.4375" stroke="white" stroke-width="2" stroke-linecap="round"/>
<path d="M25.9937 61.6938L21.9499 65.7376" stroke="white" stroke-width="2" stroke-linecap="round"/>
<path d="M20.9688 49.5625H15.25" stroke="white" stroke-width="2" stroke-linecap="round"/>
<path d="M25.9937 37.4312L21.9499 33.3874" stroke="white" stroke-width="2" stroke-linecap="round"/>
<path d="M38.125 32.4062V26.6875" stroke="white" stroke-width="2" stroke-linecap="round"/>
<path d="M50.2563 37.4312L54.3001 33.3874" stroke="white" stroke-width="2" stroke-linecap="round"/>
<path d="M55.2812 49.5625H61" stroke="white" stroke-width="2" stroke-linecap="round"/>
<path d="M50.2563 61.6938L54.3001 65.7376" stroke="white" stroke-width="2" stroke-linecap="round"/>
<path d="M38.125 59.0938C43.389 59.0938 47.6562 54.8265 47.6562 49.5625C47.6562 44.2985 43.389 40.0312 38.125 40.0312C32.861 40.0312 28.5938 44.2985 28.5938 49.5625C28.5938 54.8265 32.861 59.0938 38.125 59.0938Z" fill="white" stroke="white" stroke-width="2"/>
<g filter="url(#filter1_i)">
<path d="M90.9282 65.575C90.9282 56.8062 83.875 49.9437 75.2969 49.9437C73.3907 49.9437 71.6751 50.325 69.9594 50.8969C69.3876 44.4156 64.0501 39.0781 57.3782 39.0781C50.3251 39.0781 44.6063 44.7969 44.6063 51.85C44.6063 53.375 44.9875 54.9 45.3688 56.2344C44.7969 56.0437 44.0344 56.0437 43.4625 56.0437C36.4094 56.0437 30.6907 61.7625 30.6907 68.8156C30.6907 75.6781 36.2188 81.3968 43.0813 81.5875H75.8688C84.2563 80.6343 90.9282 73.9625 90.9282 65.575Z" fill="white" stroke="white" stroke-width="1.2" stroke-linejoin="round"/>
</g>
</g>
<defs>
<filter id="filter0_d" x="-4" y="0" width="130" height="130" filterUnits="userSpaceOnUse" color-interpolation-filters="sRGB">
<feFlood flood-opacity="0" result="BackgroundImageFix"/>
<feColorMatrix in="SourceAlpha" type="matrix" values="0 0 0 0 0 0 0 0 0 0 0 0 0 0 0 0 0 0 127 0"/>
<feOffset dy="4"/>
<feGaussianBlur stdDeviation="2"/>
<feColorMatrix type="matrix" values="0 0 0 0 0 0 0 0 0 0 0 0 0 0 0 0 0 0 0.25 0"/>
<feBlend mode="normal" in2="BackgroundImageFix" result="effect1_dropShadow"/>
<feBlend mode="normal" in="SourceGraphic" in2="effect1_dropShadow" result="shape"/>
</filter>
<filter id="filter1_i" x="30.0907" y="38.4781" width="61.4375" height="47.7093" filterUnits="userSpaceOnUse" color-interpolation-filters="sRGB">
<feFlood flood-opacity="0" result="BackgroundImageFix"/>
<feBlend mode="normal" in="SourceGraphic" in2="BackgroundImageFix" result="shape"/>
<feColorMatrix in="SourceAlpha" type="matrix" values="0 0 0 0 0 0 0 0 0 0 0 0 0 0 0 0 0 0 127 0" result="hardAlpha"/>
<feOffset dy="4"/>
<feGaussianBlur stdDeviation="2"/>
<feComposite in2="hardAlpha" operator="arithmetic" k2="-1" k3="1"/>
<feColorMatrix type="matrix" values="0 0 0 0 0.105882 0 0 0 0 0.415686 0 0 0 0 0.643137 0 0 0 0.35 0"/>
<feBlend mode="normal" in2="shape" result="effect1_innerShadow"/>
</filter>
</defs>
</svg>
