<svg width="42" height="31" viewBox="0 0 42 31" fill="none" xmlns="http://www.w3.org/2000/svg">
<path d="M13 22V25" stroke="white" stroke-width="2" stroke-linecap="round"/>
<path d="M6.63605 19.364L4.51473 21.4853" stroke="white" stroke-width="2" stroke-linecap="round"/>
<path d="M4 13H1" stroke="white" stroke-width="2" stroke-linecap="round"/>
<path d="M6.63605 6.63603L4.51473 4.51471" stroke="white" stroke-width="2" stroke-linecap="round"/>
<path d="M13 4V1" stroke="white" stroke-width="2" stroke-linecap="round"/>
<path d="M19.364 6.63603L21.4853 4.51471" stroke="white" stroke-width="2" stroke-linecap="round"/>
<path d="M22 13H25" stroke="white" stroke-width="2" stroke-linecap="round"/>
<path d="M19.364 19.364L21.4853 21.4853" stroke="white" stroke-width="2" stroke-linecap="round"/>
<path d="M13 18C15.7614 18 18 15.7614 18 13C18 10.2386 15.7614 8 13 8C10.2386 8 8 10.2386 8 13C8 15.7614 10.2386 18 13 18Z" fill="white" stroke="white" stroke-width="2"/>
<g filter="url(#filter0_i)">
<path d="M40.7 21.4C40.7 16.8 37 13.2 32.5 13.2C31.5 13.2 30.6 13.4 29.7 13.7C29.4 10.3 26.6 7.5 23.1 7.5C19.4 7.5 16.4 10.5 16.4 14.2C16.4 15 16.6 15.8 16.8 16.5C16.5 16.4 16.1 16.4 15.8 16.4C12.1 16.4 9.09998 19.4 9.09998 23.1C9.09998 26.7 12 29.7 15.6 29.8H32.8C37.2 29.3 40.7 25.8 40.7 21.4Z" fill="white" stroke="white" stroke-width="1.2" stroke-linejoin="round"/>
</g>
<defs>
<filter id="filter0_i" x="8.5" y="6.89999" width="32.8" height="27.5" filterUnits="userSpaceOnUse" color-interpolation-filters="sRGB">
<feFlood flood-opacity="0" result="BackgroundImageFix"/>
<feBlend mode="normal" in="SourceGraphic" in2="BackgroundImageFix" result="shape"/>
<feColorMatrix in="SourceAlpha" type="matrix" values="0 0 0 0 0 0 0 0 0 0 0 0 0 0 0 0 0 0 127 0" result="hardAlpha"/>
<feOffset dy="4"/>
<feGaussianBlur stdDeviation="2"/>
<feComposite in2="hardAlpha" operator="arithmetic" k2="-1" k3="1"/>
<feColorMatrix type="matrix" values="0 0 0 0 0.105882 0 0 0 0 0.415686 0 0 0 0 0.643137 0 0 0 0.35 0"/>
<feBlend mode="normal" in2="shape" result="effect1_innerShadow"/>
</filter>
</defs>
</svg>
