<svg width="64" height="64" viewBox="0 0 64 64" fill="none" xmlns="http://www.w3.org/2000/svg">
<g filter="url(#filter0_d)">
<path d="M20 35V38" stroke="white" stroke-width="2" stroke-linecap="round"/>
<path d="M13.636 32.364L11.5147 34.4853" stroke="white" stroke-width="2" stroke-linecap="round"/>
<path d="M11 26H8" stroke="white" stroke-width="2" stroke-linecap="round"/>
<path d="M13.636 19.636L11.5147 17.5147" stroke="white" stroke-width="2" stroke-linecap="round"/>
<path d="M20 17V14" stroke="white" stroke-width="2" stroke-linecap="round"/>
<path d="M26.364 19.636L28.4853 17.5147" stroke="white" stroke-width="2" stroke-linecap="round"/>
<path d="M29 26H32" stroke="white" stroke-width="2" stroke-linecap="round"/>
<path d="M26.364 32.364L28.4853 34.4853" stroke="white" stroke-width="2" stroke-linecap="round"/>
<path d="M20 31C22.7614 31 25 28.7614 25 26C25 23.2386 22.7614 21 20 21C17.2386 21 15 23.2386 15 26C15 28.7614 17.2386 31 20 31Z" fill="white" stroke="white" stroke-width="2"/>
<g filter="url(#filter1_i)">
<path d="M47.7 34.4C47.7 29.8 44 26.2 39.5 26.2C38.5 26.2 37.6 26.4 36.7 26.7C36.4 23.3 33.6 20.5 30.1 20.5C26.4 20.5 23.4 23.5 23.4 27.2C23.4 28 23.6 28.8 23.8 29.5C23.5 29.4 23.1 29.4 22.8 29.4C19.1 29.4 16.1 32.4 16.1 36.1C16.1 39.7 19 42.7 22.6 42.8H39.8C44.2 42.3 47.7 38.8 47.7 34.4Z" fill="white" stroke="white" stroke-width="1.2" stroke-linejoin="round"/>
</g>
</g>
<defs>
<filter id="filter0_d" x="-4" y="0" width="72" height="72" filterUnits="userSpaceOnUse" color-interpolation-filters="sRGB">
<feFlood flood-opacity="0" result="BackgroundImageFix"/>
<feColorMatrix in="SourceAlpha" type="matrix" values="0 0 0 0 0 0 0 0 0 0 0 0 0 0 0 0 0 0 127 0"/>
<feOffset dy="4"/>
<feGaussianBlur stdDeviation="2"/>
<feColorMatrix type="matrix" values="0 0 0 0 0 0 0 0 0 0 0 0 0 0 0 0 0 0 0.25 0"/>
<feBlend mode="normal" in2="BackgroundImageFix" result="effect1_dropShadow"/>
<feBlend mode="normal" in="SourceGraphic" in2="effect1_dropShadow" result="shape"/>
</filter>
<filter id="filter1_i" x="15.5" y="19.9" width="32.8" height="27.5" filterUnits="userSpaceOnUse" color-interpolation-filters="sRGB">
<feFlood flood-opacity="0" result="BackgroundImageFix"/>
<feBlend mode="normal" in="SourceGraphic" in2="BackgroundImageFix" result="shape"/>
<feColorMatrix in="SourceAlpha" type="matrix" values="0 0 0 0 0 0 0 0 0 0 0 0 0 0 0 0 0 0 127 0" result="hardAlpha"/>
<feOffset dy="4"/>
<feGaussianBlur stdDeviation="2"/>
<feComposite in2="hardAlpha" operator="arithmetic" k2="-1" k3="1"/>
<feColorMatrix type="matrix" values="0 0 0 0 0.105882 0 0 0 0 0.415686 0 0 0 0 0.643137 0 0 0 0.35 0"/>
<feBlend mode="normal" in2="shape" result="effect1_innerShadow"/>
</filter>
</defs>
</svg>
