<svg width="68" height="68" viewBox="0 0 68 68" fill="none" xmlns="http://www.w3.org/2000/svg">
<g filter="url(#filter0_i)">
<path d="M34 58.4688V66.625" stroke="white" stroke-width="2" stroke-linecap="round"/>
<path d="M16.698 51.302L10.9306 57.0694" stroke="white" stroke-width="2" stroke-linecap="round"/>
<path d="M9.53125 34H1.375" stroke="white" stroke-width="2" stroke-linecap="round"/>
<path d="M16.698 16.698L10.9306 10.9306" stroke="white" stroke-width="2" stroke-linecap="round"/>
<path d="M34 9.53125V1.375" stroke="white" stroke-width="2" stroke-linecap="round"/>
<path d="M51.3021 16.698L57.0694 10.9306" stroke="white" stroke-width="2" stroke-linecap="round"/>
<path d="M58.4688 34H66.625" stroke="white" stroke-width="2" stroke-linecap="round"/>
<path d="M51.3021 51.302L57.0694 57.0694" stroke="white" stroke-width="2" stroke-linecap="round"/>
<path d="M34 47.5938C41.5076 47.5938 47.5938 41.5076 47.5938 34C47.5938 26.4924 41.5076 20.4062 34 20.4062C26.4924 20.4062 20.4062 26.4924 20.4062 34C20.4062 41.5076 26.4924 47.5938 34 47.5938Z" fill="white" stroke="white" stroke-width="2"/>
</g>
<defs>
<filter id="filter0_i" x="0.375" y="0.375" width="67.25" height="71.25" filterUnits="userSpaceOnUse" color-interpolation-filters="sRGB">
<feFlood flood-opacity="0" result="BackgroundImageFix"/>
<feBlend mode="normal" in="SourceGraphic" in2="BackgroundImageFix" result="shape"/>
<feColorMatrix in="SourceAlpha" type="matrix" values="0 0 0 0 0 0 0 0 0 0 0 0 0 0 0 0 0 0 127 0" result="hardAlpha"/>
<feOffset dy="4"/>
<feGaussianBlur stdDeviation="2"/>
<feComposite in2="hardAlpha" operator="arithmetic" k2="-1" k3="1"/>
<feColorMatrix type="matrix" values="0 0 0 0 0.106944 0 0 0 0 0.417083 0 0 0 0 0.641667 0 0 0 0.35 0"/>
<feBlend mode="normal" in2="shape" result="effect1_innerShadow"/>
</filter>
</defs>
</svg>
