<svg width="266" height="266" viewBox="0 0 266 266" fill="none" xmlns="http://www.w3.org/2000/svg">
<g filter="url(#filter0_d)">
<g filter="url(#filter1_i)">
<path d="M199.077 124.685C199.077 105.566 183.699 90.6037 164.995 90.6037C160.839 90.6037 157.099 91.4349 153.358 92.6818C152.111 78.5505 140.474 66.913 125.927 66.913C110.549 66.913 98.0798 79.3818 98.0798 94.7599C98.0798 98.0849 98.9111 101.41 99.7423 104.319C98.4954 103.904 96.8329 103.904 95.5861 103.904C80.2079 103.904 67.7392 116.372 67.7392 131.751C67.7392 146.713 79.7923 159.182 94.7548 159.597H166.242C184.53 157.519 199.077 142.972 199.077 124.685Z" fill="white" stroke="white" stroke-width="1.2" stroke-linejoin="round"/>
</g>
</g>
<path d="M110.789 135.489C110.789 133.73 110.354 132.376 109.484 131.429C108.614 130.482 107.454 130.008 106.004 130.008C105.192 130.008 104.554 130.037 104.09 130.095C103.645 130.153 103.288 130.221 103.017 130.298V139.81C103.346 140.081 103.819 140.342 104.438 140.593C105.057 140.844 105.733 140.97 106.468 140.97C107.241 140.97 107.899 140.835 108.44 140.564C109.001 140.274 109.455 139.887 109.803 139.404C110.151 138.901 110.402 138.321 110.557 137.664C110.712 136.987 110.789 136.262 110.789 135.489ZM113.602 135.489C113.602 136.63 113.447 137.683 113.138 138.65C112.848 139.617 112.413 140.448 111.833 141.144C111.253 141.84 110.538 142.381 109.687 142.768C108.856 143.155 107.899 143.348 106.816 143.348C105.946 143.348 105.173 143.232 104.496 143C103.839 142.768 103.346 142.546 103.017 142.333V148.365H100.32V128.384C100.958 128.229 101.751 128.065 102.698 127.891C103.665 127.698 104.776 127.601 106.033 127.601C107.193 127.601 108.237 127.785 109.165 128.152C110.093 128.519 110.886 129.041 111.543 129.718C112.2 130.395 112.703 131.226 113.051 132.212C113.418 133.179 113.602 134.271 113.602 135.489ZM122.501 141.057C123.139 141.057 123.7 141.047 124.183 141.028C124.686 140.989 125.101 140.931 125.43 140.854V136.359C125.237 136.262 124.918 136.185 124.473 136.127C124.048 136.05 123.526 136.011 122.907 136.011C122.501 136.011 122.066 136.04 121.602 136.098C121.157 136.156 120.742 136.282 120.355 136.475C119.988 136.649 119.678 136.9 119.427 137.229C119.176 137.538 119.05 137.954 119.05 138.476C119.05 139.443 119.359 140.119 119.978 140.506C120.597 140.873 121.438 141.057 122.501 141.057ZM122.269 127.543C123.352 127.543 124.26 127.688 124.995 127.978C125.749 128.249 126.348 128.645 126.793 129.167C127.257 129.67 127.586 130.279 127.779 130.994C127.972 131.69 128.069 132.463 128.069 133.314V142.739C127.837 142.778 127.508 142.836 127.083 142.913C126.677 142.971 126.213 143.029 125.691 143.087C125.169 143.145 124.599 143.193 123.98 143.232C123.381 143.29 122.781 143.319 122.182 143.319C121.331 143.319 120.548 143.232 119.833 143.058C119.118 142.884 118.499 142.613 117.977 142.246C117.455 141.859 117.049 141.357 116.759 140.738C116.469 140.119 116.324 139.375 116.324 138.505C116.324 137.674 116.488 136.958 116.817 136.359C117.165 135.76 117.629 135.276 118.209 134.909C118.789 134.542 119.466 134.271 120.239 134.097C121.012 133.923 121.824 133.836 122.675 133.836C122.946 133.836 123.226 133.855 123.516 133.894C123.806 133.913 124.077 133.952 124.328 134.01C124.599 134.049 124.831 134.087 125.024 134.126C125.217 134.165 125.353 134.194 125.43 134.213V133.459C125.43 133.014 125.382 132.579 125.285 132.154C125.188 131.709 125.014 131.323 124.763 130.994C124.512 130.646 124.164 130.375 123.719 130.182C123.294 129.969 122.733 129.863 122.037 129.863C121.148 129.863 120.365 129.931 119.688 130.066C119.031 130.182 118.538 130.308 118.209 130.443L117.89 128.21C118.238 128.055 118.818 127.91 119.63 127.775C120.442 127.62 121.322 127.543 122.269 127.543ZM142.293 131.11C141.964 130.839 141.49 130.578 140.872 130.327C140.253 130.076 139.576 129.95 138.842 129.95C138.068 129.95 137.401 130.095 136.841 130.385C136.299 130.656 135.855 131.042 135.507 131.545C135.159 132.028 134.907 132.608 134.753 133.285C134.598 133.962 134.521 134.687 134.521 135.46C134.521 137.219 134.956 138.582 135.826 139.549C136.696 140.496 137.856 140.97 139.306 140.97C140.04 140.97 140.649 140.941 141.133 140.883C141.635 140.806 142.022 140.728 142.293 140.651V131.11ZM142.293 120.96L144.99 120.496V142.565C144.371 142.739 143.578 142.913 142.612 143.087C141.645 143.261 140.533 143.348 139.277 143.348C138.117 143.348 137.073 143.164 136.145 142.797C135.217 142.43 134.424 141.908 133.767 141.231C133.109 140.554 132.597 139.733 132.23 138.766C131.882 137.78 131.708 136.678 131.708 135.46C131.708 134.3 131.853 133.237 132.143 132.27C132.452 131.303 132.897 130.472 133.477 129.776C134.057 129.08 134.762 128.539 135.594 128.152C136.444 127.765 137.411 127.572 138.494 127.572C139.364 127.572 140.127 127.688 140.785 127.92C141.461 128.152 141.964 128.374 142.293 128.587V120.96ZM154.73 141.057C155.368 141.057 155.928 141.047 156.412 141.028C156.914 140.989 157.33 140.931 157.659 140.854V136.359C157.465 136.262 157.146 136.185 156.702 136.127C156.276 136.05 155.754 136.011 155.136 136.011C154.73 136.011 154.295 136.04 153.831 136.098C153.386 136.156 152.97 136.282 152.584 136.475C152.216 136.649 151.907 136.9 151.656 137.229C151.404 137.538 151.279 137.954 151.279 138.476C151.279 139.443 151.588 140.119 152.207 140.506C152.825 140.873 153.666 141.057 154.73 141.057ZM154.498 127.543C155.58 127.543 156.489 127.688 157.224 127.978C157.978 128.249 158.577 128.645 159.022 129.167C159.486 129.67 159.814 130.279 160.008 130.994C160.201 131.69 160.298 132.463 160.298 133.314V142.739C160.066 142.778 159.737 142.836 159.312 142.913C158.906 142.971 158.442 143.029 157.92 143.087C157.398 143.145 156.827 143.193 156.209 143.232C155.609 143.29 155.01 143.319 154.411 143.319C153.56 143.319 152.777 143.232 152.062 143.058C151.346 142.884 150.728 142.613 150.206 142.246C149.684 141.859 149.278 141.357 148.988 140.738C148.698 140.119 148.553 139.375 148.553 138.505C148.553 137.674 148.717 136.958 149.046 136.359C149.394 135.76 149.858 135.276 150.438 134.909C151.018 134.542 151.694 134.271 152.468 134.097C153.241 133.923 154.053 133.836 154.904 133.836C155.174 133.836 155.455 133.855 155.745 133.894C156.035 133.913 156.305 133.952 156.557 134.01C156.827 134.049 157.059 134.087 157.253 134.126C157.446 134.165 157.581 134.194 157.659 134.213V133.459C157.659 133.014 157.61 132.579 157.514 132.154C157.417 131.709 157.243 131.323 156.992 130.994C156.74 130.646 156.392 130.375 155.948 130.182C155.522 129.969 154.962 129.863 154.266 129.863C153.376 129.863 152.593 129.931 151.917 130.066C151.259 130.182 150.766 130.308 150.438 130.443L150.119 128.21C150.467 128.055 151.047 127.91 151.859 127.775C152.671 127.62 153.55 127.543 154.498 127.543ZM166.682 124.701C165.406 124.701 164.159 125.03 162.941 125.687L162.187 123.599C162.844 123.251 163.579 122.971 164.391 122.758C165.222 122.545 166.102 122.439 167.03 122.439C168.132 122.439 169.031 122.594 169.727 122.903C170.442 123.193 171.012 123.57 171.438 124.034C171.863 124.498 172.153 125.02 172.308 125.6C172.482 126.161 172.569 126.702 172.569 127.224C172.569 127.881 172.443 128.471 172.192 128.993C171.94 129.496 171.631 129.969 171.264 130.414C170.896 130.859 170.49 131.284 170.046 131.69C169.601 132.096 169.195 132.521 168.828 132.966C168.46 133.391 168.151 133.865 167.9 134.387C167.648 134.89 167.523 135.46 167.523 136.098C167.523 136.195 167.523 136.301 167.523 136.417C167.523 136.533 167.532 136.639 167.552 136.736H165.29C165.212 136.349 165.174 135.943 165.174 135.518C165.174 134.899 165.28 134.339 165.493 133.836C165.725 133.333 166.015 132.869 166.363 132.444C166.711 131.999 167.078 131.593 167.465 131.226C167.851 130.839 168.219 130.453 168.567 130.066C168.915 129.679 169.195 129.273 169.408 128.848C169.64 128.423 169.756 127.959 169.756 127.456C169.756 126.644 169.495 125.987 168.973 125.484C168.451 124.962 167.687 124.701 166.682 124.701ZM168.509 141.434C168.509 141.956 168.335 142.41 167.987 142.797C167.639 143.184 167.165 143.377 166.566 143.377C165.966 143.377 165.493 143.184 165.145 142.797C164.797 142.41 164.623 141.956 164.623 141.434C164.623 140.912 164.797 140.458 165.145 140.071C165.493 139.684 165.966 139.491 166.566 139.491C167.165 139.491 167.639 139.684 167.987 140.071C168.335 140.458 168.509 140.912 168.509 141.434Z" fill="#003C67"/>
<defs>
<filter id="filter0_d" x="63.1392" y="66.313" width="140.538" height="101.884" filterUnits="userSpaceOnUse" color-interpolation-filters="sRGB">
<feFlood flood-opacity="0" result="BackgroundImageFix"/>
<feColorMatrix in="SourceAlpha" type="matrix" values="0 0 0 0 0 0 0 0 0 0 0 0 0 0 0 0 0 0 127 0"/>
<feOffset dy="4"/>
<feGaussianBlur stdDeviation="2"/>
<feColorMatrix type="matrix" values="0 0 0 0 0 0 0 0 0 0 0 0 0 0 0 0 0 0 0.25 0"/>
<feBlend mode="normal" in2="BackgroundImageFix" result="effect1_dropShadow"/>
<feBlend mode="normal" in="SourceGraphic" in2="effect1_dropShadow" result="shape"/>
</filter>
<filter id="filter1_i" x="67.1392" y="66.313" width="132.538" height="97.8844" filterUnits="userSpaceOnUse" color-interpolation-filters="sRGB">
<feFlood flood-opacity="0" result="BackgroundImageFix"/>
<feBlend mode="normal" in="SourceGraphic" in2="BackgroundImageFix" result="shape"/>
<feColorMatrix in="SourceAlpha" type="matrix" values="0 0 0 0 0 0 0 0 0 0 0 0 0 0 0 0 0 0 127 0" result="hardAlpha"/>
<feOffset dy="4"/>
<feGaussianBlur stdDeviation="2"/>
<feComposite in2="hardAlpha" operator="arithmetic" k2="-1" k3="1"/>
<feColorMatrix type="matrix" values="0 0 0 0 0.106944 0 0 0 0 0.417083 0 0 0 0 0.641667 0 0 0 0.35 0"/>
<feBlend mode="normal" in2="shape" result="effect1_innerShadow"/>
</filter>
</defs>
</svg>
