<svg width="322" height="322" viewBox="0 0 322 322" fill="none" xmlns="http://www.w3.org/2000/svg">
<g filter="url(#filter0_d)">
<g filter="url(#filter1_i)">
<path d="M240.988 150.934C240.988 127.791 222.372 109.678 199.731 109.678C194.7 109.678 190.172 110.684 185.644 112.194C184.134 95.0875 170.047 81 152.438 81C133.822 81 118.728 96.0938 118.728 114.709C118.728 118.734 119.734 122.759 120.741 126.281C119.231 125.778 117.219 125.778 115.709 125.778C97.0938 125.778 82 140.872 82 159.487C82 177.6 96.5906 192.694 114.703 193.197H201.241C223.378 190.681 240.988 173.072 240.988 150.934Z" fill="white" stroke="white" stroke-width="1.2" stroke-linejoin="round"/>
</g>
</g>
<path d="M133.553 163.453C133.553 161.451 133.058 159.911 132.068 158.833C131.078 157.755 129.758 157.216 128.108 157.216C127.184 157.216 126.458 157.249 125.93 157.315C125.424 157.381 125.017 157.458 124.709 157.546V168.37C125.083 168.678 125.622 168.975 126.326 169.261C127.03 169.547 127.8 169.69 128.636 169.69C129.516 169.69 130.264 169.536 130.88 169.228C131.518 168.898 132.035 168.458 132.431 167.908C132.827 167.336 133.113 166.676 133.289 165.928C133.465 165.158 133.553 164.333 133.553 163.453ZM136.754 163.453C136.754 164.751 136.578 165.95 136.226 167.05C135.896 168.15 135.401 169.096 134.741 169.888C134.081 170.68 133.267 171.296 132.299 171.736C131.353 172.176 130.264 172.396 129.032 172.396C128.042 172.396 127.162 172.264 126.392 172C125.644 171.736 125.083 171.483 124.709 171.241V178.105H121.64V155.368C122.366 155.192 123.268 155.005 124.346 154.807C125.446 154.587 126.711 154.477 128.141 154.477C129.461 154.477 130.649 154.686 131.705 155.104C132.761 155.522 133.663 156.116 134.411 156.886C135.159 157.656 135.731 158.602 136.127 159.724C136.545 160.824 136.754 162.067 136.754 163.453ZM146.881 169.789C147.607 169.789 148.245 169.778 148.795 169.756C149.367 169.712 149.84 169.646 150.214 169.558V164.443C149.994 164.333 149.631 164.245 149.125 164.179C148.641 164.091 148.047 164.047 147.343 164.047C146.881 164.047 146.386 164.08 145.858 164.146C145.352 164.212 144.879 164.355 144.439 164.575C144.021 164.773 143.669 165.059 143.383 165.433C143.097 165.785 142.954 166.258 142.954 166.852C142.954 167.952 143.306 168.722 144.01 169.162C144.714 169.58 145.671 169.789 146.881 169.789ZM146.617 154.411C147.849 154.411 148.883 154.576 149.719 154.906C150.577 155.214 151.259 155.665 151.765 156.259C152.293 156.831 152.667 157.524 152.887 158.338C153.107 159.13 153.217 160.01 153.217 160.978V171.703C152.953 171.747 152.579 171.813 152.095 171.901C151.633 171.967 151.105 172.033 150.511 172.099C149.917 172.165 149.268 172.22 148.564 172.264C147.882 172.33 147.2 172.363 146.518 172.363C145.55 172.363 144.659 172.264 143.845 172.066C143.031 171.868 142.327 171.56 141.733 171.142C141.139 170.702 140.677 170.13 140.347 169.426C140.017 168.722 139.852 167.875 139.852 166.885C139.852 165.939 140.039 165.125 140.413 164.443C140.809 163.761 141.337 163.211 141.997 162.793C142.657 162.375 143.427 162.067 144.307 161.869C145.187 161.671 146.111 161.572 147.079 161.572C147.387 161.572 147.706 161.594 148.036 161.638C148.366 161.66 148.674 161.704 148.96 161.77C149.268 161.814 149.532 161.858 149.752 161.902C149.972 161.946 150.126 161.979 150.214 162.001V161.143C150.214 160.637 150.159 160.142 150.049 159.658C149.939 159.152 149.741 158.712 149.455 158.338C149.169 157.942 148.773 157.634 148.267 157.414C147.783 157.172 147.145 157.051 146.353 157.051C145.341 157.051 144.45 157.128 143.68 157.282C142.932 157.414 142.371 157.557 141.997 157.711L141.634 155.17C142.03 154.994 142.69 154.829 143.614 154.675C144.538 154.499 145.539 154.411 146.617 154.411ZM169.402 158.47C169.028 158.162 168.489 157.865 167.785 157.579C167.081 157.293 166.311 157.15 165.475 157.15C164.595 157.15 163.836 157.315 163.198 157.645C162.582 157.953 162.076 158.393 161.68 158.965C161.284 159.515 160.998 160.175 160.822 160.945C160.646 161.715 160.558 162.54 160.558 163.42C160.558 165.422 161.053 166.973 162.043 168.073C163.033 169.151 164.353 169.69 166.003 169.69C166.839 169.69 167.532 169.657 168.082 169.591C168.654 169.503 169.094 169.415 169.402 169.327V158.47ZM169.402 146.92L172.471 146.392V171.505C171.767 171.703 170.865 171.901 169.765 172.099C168.665 172.297 167.4 172.396 165.97 172.396C164.65 172.396 163.462 172.187 162.406 171.769C161.35 171.351 160.448 170.757 159.7 169.987C158.952 169.217 158.369 168.282 157.951 167.182C157.555 166.06 157.357 164.806 157.357 163.42C157.357 162.1 157.522 160.89 157.852 159.79C158.204 158.69 158.71 157.744 159.37 156.952C160.03 156.16 160.833 155.544 161.779 155.104C162.747 154.664 163.847 154.444 165.079 154.444C166.069 154.444 166.938 154.576 167.686 154.84C168.456 155.104 169.028 155.357 169.402 155.599V146.92ZM183.554 169.789C184.28 169.789 184.918 169.778 185.468 169.756C186.04 169.712 186.513 169.646 186.887 169.558V164.443C186.667 164.333 186.304 164.245 185.798 164.179C185.314 164.091 184.72 164.047 184.016 164.047C183.554 164.047 183.059 164.08 182.531 164.146C182.025 164.212 181.552 164.355 181.112 164.575C180.694 164.773 180.342 165.059 180.056 165.433C179.77 165.785 179.627 166.258 179.627 166.852C179.627 167.952 179.979 168.722 180.683 169.162C181.387 169.58 182.344 169.789 183.554 169.789ZM183.29 154.411C184.522 154.411 185.556 154.576 186.392 154.906C187.25 155.214 187.932 155.665 188.438 156.259C188.966 156.831 189.34 157.524 189.56 158.338C189.78 159.13 189.89 160.01 189.89 160.978V171.703C189.626 171.747 189.252 171.813 188.768 171.901C188.306 171.967 187.778 172.033 187.184 172.099C186.59 172.165 185.941 172.22 185.237 172.264C184.555 172.33 183.873 172.363 183.191 172.363C182.223 172.363 181.332 172.264 180.518 172.066C179.704 171.868 179 171.56 178.406 171.142C177.812 170.702 177.35 170.13 177.02 169.426C176.69 168.722 176.525 167.875 176.525 166.885C176.525 165.939 176.712 165.125 177.086 164.443C177.482 163.761 178.01 163.211 178.67 162.793C179.33 162.375 180.1 162.067 180.98 161.869C181.86 161.671 182.784 161.572 183.752 161.572C184.06 161.572 184.379 161.594 184.709 161.638C185.039 161.66 185.347 161.704 185.633 161.77C185.941 161.814 186.205 161.858 186.425 161.902C186.645 161.946 186.799 161.979 186.887 162.001V161.143C186.887 160.637 186.832 160.142 186.722 159.658C186.612 159.152 186.414 158.712 186.128 158.338C185.842 157.942 185.446 157.634 184.94 157.414C184.456 157.172 183.818 157.051 183.026 157.051C182.014 157.051 181.123 157.128 180.353 157.282C179.605 157.414 179.044 157.557 178.67 157.711L178.307 155.17C178.703 154.994 179.363 154.829 180.287 154.675C181.211 154.499 182.212 154.411 183.29 154.411ZM197.155 151.177C195.703 151.177 194.284 151.551 192.898 152.299L192.04 149.923C192.788 149.527 193.624 149.208 194.548 148.966C195.494 148.724 196.495 148.603 197.551 148.603C198.805 148.603 199.828 148.779 200.62 149.131C201.434 149.461 202.083 149.89 202.567 150.418C203.051 150.946 203.381 151.54 203.557 152.2C203.755 152.838 203.854 153.454 203.854 154.048C203.854 154.796 203.711 155.467 203.425 156.061C203.139 156.633 202.787 157.172 202.369 157.678C201.951 158.184 201.489 158.668 200.983 159.13C200.477 159.592 200.015 160.076 199.597 160.582C199.179 161.066 198.827 161.605 198.541 162.199C198.255 162.771 198.112 163.42 198.112 164.146C198.112 164.256 198.112 164.377 198.112 164.509C198.112 164.641 198.123 164.762 198.145 164.872H195.571C195.483 164.432 195.439 163.97 195.439 163.486C195.439 162.782 195.56 162.144 195.802 161.572C196.066 161 196.396 160.472 196.792 159.988C197.188 159.482 197.606 159.02 198.046 158.602C198.486 158.162 198.904 157.722 199.3 157.282C199.696 156.842 200.015 156.38 200.257 155.896C200.521 155.412 200.653 154.884 200.653 154.312C200.653 153.388 200.356 152.64 199.762 152.068C199.168 151.474 198.299 151.177 197.155 151.177ZM199.234 170.218C199.234 170.812 199.036 171.329 198.64 171.769C198.244 172.209 197.705 172.429 197.023 172.429C196.341 172.429 195.802 172.209 195.406 171.769C195.01 171.329 194.812 170.812 194.812 170.218C194.812 169.624 195.01 169.107 195.406 168.667C195.802 168.227 196.341 168.007 197.023 168.007C197.705 168.007 198.244 168.227 198.64 168.667C199.036 169.107 199.234 169.624 199.234 170.218Z" fill="#003C67"/>
<defs>
<filter id="filter0_d" x="77.4" y="80.4" width="168.188" height="121.397" filterUnits="userSpaceOnUse" color-interpolation-filters="sRGB">
<feFlood flood-opacity="0" result="BackgroundImageFix"/>
<feColorMatrix in="SourceAlpha" type="matrix" values="0 0 0 0 0 0 0 0 0 0 0 0 0 0 0 0 0 0 127 0"/>
<feOffset dy="4"/>
<feGaussianBlur stdDeviation="2"/>
<feColorMatrix type="matrix" values="0 0 0 0 0 0 0 0 0 0 0 0 0 0 0 0 0 0 0.25 0"/>
<feBlend mode="normal" in2="BackgroundImageFix" result="effect1_dropShadow"/>
<feBlend mode="normal" in="SourceGraphic" in2="effect1_dropShadow" result="shape"/>
</filter>
<filter id="filter1_i" x="81.4" y="80.4" width="160.188" height="117.397" filterUnits="userSpaceOnUse" color-interpolation-filters="sRGB">
<feFlood flood-opacity="0" result="BackgroundImageFix"/>
<feBlend mode="normal" in="SourceGraphic" in2="BackgroundImageFix" result="shape"/>
<feColorMatrix in="SourceAlpha" type="matrix" values="0 0 0 0 0 0 0 0 0 0 0 0 0 0 0 0 0 0 127 0" result="hardAlpha"/>
<feOffset dy="4"/>
<feGaussianBlur stdDeviation="2"/>
<feComposite in2="hardAlpha" operator="arithmetic" k2="-1" k3="1"/>
<feColorMatrix type="matrix" values="0 0 0 0 0.106944 0 0 0 0 0.417083 0 0 0 0 0.641667 0 0 0 0.35 0"/>
<feBlend mode="normal" in2="shape" result="effect1_innerShadow"/>
</filter>
</defs>
</svg>
