<svg width="122" height="122" viewBox="0 0 122 122" fill="none" xmlns="http://www.w3.org/2000/svg">
<g filter="url(#filter0_d)">
<g filter="url(#filter1_i)">
<path d="M90.9282 65.575C90.9282 56.8063 83.875 49.9438 75.2969 49.9438C73.3907 49.9438 71.675 50.325 69.9594 50.8969C69.3875 44.4156 64.05 39.0781 57.3782 39.0781C50.325 39.0781 44.6063 44.7969 44.6063 51.85C44.6063 53.375 44.9875 54.9 45.3688 56.2344C44.7969 56.0438 44.0344 56.0438 43.4625 56.0438C36.4094 56.0438 30.6907 61.7625 30.6907 68.8156C30.6907 75.6781 36.2188 81.3969 43.0813 81.5875H75.8688C84.2563 80.6344 90.9282 73.9625 90.9282 65.575Z" fill="white" stroke="white" stroke-width="1.2" stroke-linejoin="round"/>
</g>
<path d="M51.2534 88.2407L48.6053 103.259" stroke="white" stroke-width="2" stroke-linecap="round" stroke-dasharray="4 4"/>
<path d="M59.4248 85.8102L56.7767 100.829" stroke="white" stroke-width="2" stroke-linecap="round" stroke-dasharray="4 4"/>
<path d="M66.603 89.0116L63.9549 104.03" stroke="white" stroke-width="2" stroke-linecap="round" stroke-dasharray="4 4"/>
</g>
<defs>
<filter id="filter0_d" x="26.0906" y="38.4781" width="69.4375" height="74.5519" filterUnits="userSpaceOnUse" color-interpolation-filters="sRGB">
<feFlood flood-opacity="0" result="BackgroundImageFix"/>
<feColorMatrix in="SourceAlpha" type="matrix" values="0 0 0 0 0 0 0 0 0 0 0 0 0 0 0 0 0 0 127 0"/>
<feOffset dy="4"/>
<feGaussianBlur stdDeviation="2"/>
<feColorMatrix type="matrix" values="0 0 0 0 0 0 0 0 0 0 0 0 0 0 0 0 0 0 0.25 0"/>
<feBlend mode="normal" in2="BackgroundImageFix" result="effect1_dropShadow"/>
<feBlend mode="normal" in="SourceGraphic" in2="effect1_dropShadow" result="shape"/>
</filter>
<filter id="filter1_i" x="30.0906" y="38.4781" width="61.4375" height="47.7094" filterUnits="userSpaceOnUse" color-interpolation-filters="sRGB">
<feFlood flood-opacity="0" result="BackgroundImageFix"/>
<feBlend mode="normal" in="SourceGraphic" in2="BackgroundImageFix" result="shape"/>
<feColorMatrix in="SourceAlpha" type="matrix" values="0 0 0 0 0 0 0 0 0 0 0 0 0 0 0 0 0 0 127 0" result="hardAlpha"/>
<feOffset dy="4"/>
<feGaussianBlur stdDeviation="2"/>
<feComposite in2="hardAlpha" operator="arithmetic" k2="-1" k3="1"/>
<feColorMatrix type="matrix" values="0 0 0 0 0.106944 0 0 0 0 0.417083 0 0 0 0 0.641667 0 0 0 0.35 0"/>
<feBlend mode="normal" in2="shape" result="effect1_innerShadow"/>
</filter>
</defs>
</svg>
