<svg width="50" height="50" viewBox="0 0 50 50" fill="none" xmlns="http://www.w3.org/2000/svg">
<g filter="url(#filter0_d)">
<path d="M17 22V25" stroke="white" stroke-width="2" stroke-linecap="round"/>
<path d="M10.636 19.364L8.51473 21.4853" stroke="white" stroke-width="2" stroke-linecap="round"/>
<path d="M8 13H5" stroke="white" stroke-width="2" stroke-linecap="round"/>
<path d="M10.636 6.63603L8.51473 4.51471" stroke="white" stroke-width="2" stroke-linecap="round"/>
<path d="M17 4V1" stroke="white" stroke-width="2" stroke-linecap="round"/>
<path d="M23.364 6.63603L25.4853 4.51471" stroke="white" stroke-width="2" stroke-linecap="round"/>
<path d="M26 13H29" stroke="white" stroke-width="2" stroke-linecap="round"/>
<path d="M23.364 19.364L25.4853 21.4853" stroke="white" stroke-width="2" stroke-linecap="round"/>
<path d="M17 18C19.7614 18 22 15.7614 22 13C22 10.2386 19.7614 8 17 8C14.2386 8 12 10.2386 12 13C12 15.7614 14.2386 18 17 18Z" fill="white" stroke="white" stroke-width="2"/>
<g filter="url(#filter1_i)">
<path d="M44.7 21.4C44.7 16.8 41 13.2 36.5 13.2C35.5 13.2 34.6 13.4 33.7 13.7C33.4 10.3 30.6 7.5 27.1 7.5C23.4 7.5 20.4 10.5 20.4 14.2C20.4 15 20.6 15.8 20.8 16.5C20.5 16.4 20.1 16.4 19.8 16.4C16.1 16.4 13.1 19.4 13.1 23.1C13.1 26.7 16 29.7 19.6 29.8H36.8C41.2 29.3 44.7 25.8 44.7 21.4Z" fill="white" stroke="white" stroke-width="1.2" stroke-linejoin="round"/>
</g>
<path d="M24.9175 32.9429L23.5283 40.8214" stroke="white" stroke-width="2" stroke-linecap="round" stroke-dasharray="4 7"/>
<path d="M31.1736 32.0152L29.7844 39.8937" stroke="white" stroke-width="2" stroke-linecap="round" stroke-dasharray="4 7"/>
</g>
<defs>
<filter id="filter0_d" x="0" y="0" width="49.3" height="49.8215" filterUnits="userSpaceOnUse" color-interpolation-filters="sRGB">
<feFlood flood-opacity="0" result="BackgroundImageFix"/>
<feColorMatrix in="SourceAlpha" type="matrix" values="0 0 0 0 0 0 0 0 0 0 0 0 0 0 0 0 0 0 127 0"/>
<feOffset dy="4"/>
<feGaussianBlur stdDeviation="2"/>
<feColorMatrix type="matrix" values="0 0 0 0 0 0 0 0 0 0 0 0 0 0 0 0 0 0 0.25 0"/>
<feBlend mode="normal" in2="BackgroundImageFix" result="effect1_dropShadow"/>
<feBlend mode="normal" in="SourceGraphic" in2="effect1_dropShadow" result="shape"/>
</filter>
<filter id="filter1_i" x="12.5" y="6.89999" width="32.8" height="27.5" filterUnits="userSpaceOnUse" color-interpolation-filters="sRGB">
<feFlood flood-opacity="0" result="BackgroundImageFix"/>
<feBlend mode="normal" in="SourceGraphic" in2="BackgroundImageFix" result="shape"/>
<feColorMatrix in="SourceAlpha" type="matrix" values="0 0 0 0 0 0 0 0 0 0 0 0 0 0 0 0 0 0 127 0" result="hardAlpha"/>
<feOffset dy="4"/>
<feGaussianBlur stdDeviation="2"/>
<feComposite in2="hardAlpha" operator="arithmetic" k2="-1" k3="1"/>
<feColorMatrix type="matrix" values="0 0 0 0 0.106944 0 0 0 0 0.417083 0 0 0 0 0.641667 0 0 0 0.35 0"/>
<feBlend mode="normal" in2="shape" result="effect1_innerShadow"/>
</filter>
</defs>
</svg>
