<svg width="122" height="122" viewBox="0 0 122 122" fill="none" xmlns="http://www.w3.org/2000/svg">
<g filter="url(#filter0_d)">
<g filter="url(#filter1_i)">
<path d="M90.7375 58.9031C90.7375 50.1344 83.6844 43.2719 75.1062 43.2719C73.2 43.2719 71.4844 43.6531 69.7687 44.225C69.1969 37.7438 63.8594 32.4062 57.1875 32.4062C50.1344 32.4062 44.4156 38.125 44.4156 45.1781C44.4156 46.7031 44.7969 48.2281 45.1781 49.5625C44.6062 49.3719 43.8437 49.3719 43.2719 49.3719C36.2187 49.3719 30.5 55.0906 30.5 62.1437C30.5 69.0062 36.0281 74.725 42.8906 74.9156H75.6781C84.0656 73.9625 90.7375 67.2906 90.7375 58.9031Z" fill="white" stroke="white" stroke-width="1.2" stroke-linejoin="round"/>
</g>
<path d="M43.6531 81.9688V91.5" stroke="white" stroke-width="1.2" stroke-linecap="round"/>
<path d="M47.0229 83.3646L40.2833 90.1042" stroke="white" stroke-linecap="round"/>
<path d="M48.4187 86.7344H38.8875" stroke="white" stroke-linecap="round"/>
<path d="M47.0229 90.1042L40.2833 83.3646" stroke="white" stroke-linecap="round"/>
<path d="M58.9031 85.7812V95.3125" stroke="white" stroke-width="1.2" stroke-linecap="round"/>
<path d="M62.2729 87.1771L55.5333 93.9167" stroke="white" stroke-linecap="round"/>
<path d="M63.6687 90.5469H54.1375" stroke="white" stroke-linecap="round"/>
<path d="M62.2729 93.9167L55.5333 87.1771" stroke="white" stroke-linecap="round"/>
<path d="M76.0593 81.9688V91.5" stroke="white" stroke-width="1.2" stroke-linecap="round"/>
<path d="M79.4292 83.3646L72.6896 90.1042" stroke="white" stroke-linecap="round"/>
<path d="M80.825 86.7344H71.2937" stroke="white" stroke-linecap="round"/>
<path d="M79.4292 90.1042L72.6896 83.3646" stroke="white" stroke-linecap="round"/>
</g>
<defs>
<filter id="filter0_d" x="25.8999" y="31.8062" width="69.4375" height="72.1063" filterUnits="userSpaceOnUse" color-interpolation-filters="sRGB">
<feFlood flood-opacity="0" result="BackgroundImageFix"/>
<feColorMatrix in="SourceAlpha" type="matrix" values="0 0 0 0 0 0 0 0 0 0 0 0 0 0 0 0 0 0 127 0"/>
<feOffset dy="4"/>
<feGaussianBlur stdDeviation="2"/>
<feColorMatrix type="matrix" values="0 0 0 0 0 0 0 0 0 0 0 0 0 0 0 0 0 0 0.25 0"/>
<feBlend mode="normal" in2="BackgroundImageFix" result="effect1_dropShadow"/>
<feBlend mode="normal" in="SourceGraphic" in2="effect1_dropShadow" result="shape"/>
</filter>
<filter id="filter1_i" x="29.8999" y="31.8062" width="61.4375" height="47.7094" filterUnits="userSpaceOnUse" color-interpolation-filters="sRGB">
<feFlood flood-opacity="0" result="BackgroundImageFix"/>
<feBlend mode="normal" in="SourceGraphic" in2="BackgroundImageFix" result="shape"/>
<feColorMatrix in="SourceAlpha" type="matrix" values="0 0 0 0 0 0 0 0 0 0 0 0 0 0 0 0 0 0 127 0" result="hardAlpha"/>
<feOffset dy="4"/>
<feGaussianBlur stdDeviation="2"/>
<feComposite in2="hardAlpha" operator="arithmetic" k2="-1" k3="1"/>
<feColorMatrix type="matrix" values="0 0 0 0 0.106944 0 0 0 0 0.417083 0 0 0 0 0.641667 0 0 0 0.35 0"/>
<feBlend mode="normal" in2="shape" result="effect1_innerShadow"/>
</filter>
</defs>
</svg>
