<svg width="42" height="43" viewBox="0 0 42 43" fill="none" xmlns="http://www.w3.org/2000/svg">
<g filter="url(#filter0_d)">
<g filter="url(#filter1_i)">
<path d="M36.6 14.9C36.6 10.3 32.9 6.7 28.4 6.7C27.4 6.7 26.5 6.9 25.6 7.2C25.3 3.8 22.5 1 19 1C15.3 1 12.3 4 12.3 7.7C12.3 8.5 12.5 9.3 12.7 10C12.4 9.9 12 9.9 11.7 9.9C8 9.9 5 12.9 5 16.6C5 20.2 7.9 23.2 11.5 23.3H28.7C33.1 22.8 36.6 19.3 36.6 14.9Z" fill="white" stroke="white" stroke-width="1.2" stroke-linejoin="round"/>
</g>
<path d="M11.9 27V32" stroke="white" stroke-width="1.2" stroke-linecap="round"/>
<path d="M13.6678 27.7322L10.1323 31.2678" stroke="white" stroke-linecap="round"/>
<path d="M14.4 29.5H9.40002" stroke="white" stroke-linecap="round"/>
<path d="M13.6678 31.2678L10.1323 27.7322" stroke="white" stroke-linecap="round"/>
<path d="M19.9 29V34" stroke="white" stroke-width="1.2" stroke-linecap="round"/>
<path d="M21.6678 29.7322L18.1323 33.2678" stroke="white" stroke-linecap="round"/>
<path d="M22.4 31.5H17.4" stroke="white" stroke-linecap="round"/>
<path d="M21.6678 33.2678L18.1323 29.7322" stroke="white" stroke-linecap="round"/>
<path d="M28.9 27V32" stroke="white" stroke-width="1.2" stroke-linecap="round"/>
<path d="M30.6678 27.7322L27.1323 31.2678" stroke="white" stroke-linecap="round"/>
<path d="M31.4 29.5H26.4" stroke="white" stroke-linecap="round"/>
<path d="M30.6678 31.2678L27.1323 27.7322" stroke="white" stroke-linecap="round"/>
</g>
<defs>
<filter id="filter0_d" x="0.400024" y="0.399994" width="40.8" height="42.2" filterUnits="userSpaceOnUse" color-interpolation-filters="sRGB">
<feFlood flood-opacity="0" result="BackgroundImageFix"/>
<feColorMatrix in="SourceAlpha" type="matrix" values="0 0 0 0 0 0 0 0 0 0 0 0 0 0 0 0 0 0 127 0"/>
<feOffset dy="4"/>
<feGaussianBlur stdDeviation="2"/>
<feColorMatrix type="matrix" values="0 0 0 0 0 0 0 0 0 0 0 0 0 0 0 0 0 0 0.25 0"/>
<feBlend mode="normal" in2="BackgroundImageFix" result="effect1_dropShadow"/>
<feBlend mode="normal" in="SourceGraphic" in2="effect1_dropShadow" result="shape"/>
</filter>
<filter id="filter1_i" x="4.40002" y="0.399994" width="32.8" height="27.5" filterUnits="userSpaceOnUse" color-interpolation-filters="sRGB">
<feFlood flood-opacity="0" result="BackgroundImageFix"/>
<feBlend mode="normal" in="SourceGraphic" in2="BackgroundImageFix" result="shape"/>
<feColorMatrix in="SourceAlpha" type="matrix" values="0 0 0 0 0 0 0 0 0 0 0 0 0 0 0 0 0 0 127 0" result="hardAlpha"/>
<feOffset dy="4"/>
<feGaussianBlur stdDeviation="2"/>
<feComposite in2="hardAlpha" operator="arithmetic" k2="-1" k3="1"/>
<feColorMatrix type="matrix" values="0 0 0 0 0.106944 0 0 0 0 0.417083 0 0 0 0 0.641667 0 0 0 0.35 0"/>
<feBlend mode="normal" in2="shape" result="effect1_innerShadow"/>
</filter>
</defs>
</svg>
