<svg width="70" height="63" viewBox="0 0 70 63" fill="none" xmlns="http://www.w3.org/2000/svg">
<g filter="url(#filter0_d)">
<path d="M47.6194 16.3012C47.6194 11.04 43.3876 6.9225 38.2407 6.9225C37.0969 6.9225 36.0676 7.15125 35.0382 7.49437C34.6951 3.60562 31.4926 0.403122 27.4894 0.403122C23.2576 0.403122 19.8263 3.83437 19.8263 8.06625C19.8263 8.98125 20.0551 9.89625 20.2838 10.6969C19.9407 10.5825 19.4832 10.5825 19.1401 10.5825C14.9082 10.5825 11.4769 14.0137 11.4769 18.2456C11.4769 22.3631 14.7938 25.7944 18.9113 25.9087H38.5838C43.6163 25.3369 47.6194 21.3337 47.6194 16.3012Z" fill="white" stroke="white" stroke-width="1.2" stroke-linejoin="round"/>
<g filter="url(#filter1_i)">
<path d="M64.9282 37.575C64.9282 28.8063 57.875 21.9438 49.2969 21.9438C47.3907 21.9438 45.675 22.325 43.9594 22.8969C43.3875 16.4156 38.05 11.0781 31.3782 11.0781C24.325 11.0781 18.6063 16.7969 18.6063 23.85C18.6063 25.375 18.9875 26.9 19.3688 28.2344C18.7969 28.0438 18.0344 28.0438 17.4625 28.0438C10.4094 28.0438 4.69067 33.7625 4.69067 40.8156C4.69067 47.6781 10.2188 53.3969 17.0813 53.5875H49.8688C58.2563 52.6344 64.9282 45.9625 64.9282 37.575Z" fill="white" stroke="white" stroke-width="1.2" stroke-linejoin="round"/>
</g>
</g>
<defs>
<filter id="filter0_d" x="0.0906982" y="0.0431213" width="69.4375" height="62.1444" filterUnits="userSpaceOnUse" color-interpolation-filters="sRGB">
<feFlood flood-opacity="0" result="BackgroundImageFix"/>
<feColorMatrix in="SourceAlpha" type="matrix" values="0 0 0 0 0 0 0 0 0 0 0 0 0 0 0 0 0 0 127 0"/>
<feOffset dy="4"/>
<feGaussianBlur stdDeviation="2"/>
<feColorMatrix type="matrix" values="0 0 0 0 0 0 0 0 0 0 0 0 0 0 0 0 0 0 0.25 0"/>
<feBlend mode="normal" in2="BackgroundImageFix" result="effect1_dropShadow"/>
<feBlend mode="normal" in="SourceGraphic" in2="effect1_dropShadow" result="shape"/>
</filter>
<filter id="filter1_i" x="4.0907" y="10.4781" width="61.4375" height="47.7094" filterUnits="userSpaceOnUse" color-interpolation-filters="sRGB">
<feFlood flood-opacity="0" result="BackgroundImageFix"/>
<feBlend mode="normal" in="SourceGraphic" in2="BackgroundImageFix" result="shape"/>
<feColorMatrix in="SourceAlpha" type="matrix" values="0 0 0 0 0 0 0 0 0 0 0 0 0 0 0 0 0 0 127 0" result="hardAlpha"/>
<feOffset dy="4"/>
<feGaussianBlur stdDeviation="2"/>
<feComposite in2="hardAlpha" operator="arithmetic" k2="-1" k3="1"/>
<feColorMatrix type="matrix" values="0 0 0 0 0.106944 0 0 0 0 0.417083 0 0 0 0 0.641667 0 0 0 0.35 0"/>
<feBlend mode="normal" in2="shape" result="effect1_innerShadow"/>
</filter>
</defs>
</svg>
