<svg width="76" height="76" viewBox="0 0 76 76" fill="none" xmlns="http://www.w3.org/2000/svg">
<g filter="url(#filter0_d)">
<g filter="url(#filter1_i)">
<path d="M38 58.4688V66.625" stroke="white" stroke-width="2" stroke-linecap="round"/>
<path d="M20.698 51.302L14.9306 57.0694" stroke="white" stroke-width="2" stroke-linecap="round"/>
<path d="M13.5312 34H5.375" stroke="white" stroke-width="2" stroke-linecap="round"/>
<path d="M20.698 16.698L14.9306 10.9306" stroke="white" stroke-width="2" stroke-linecap="round"/>
<path d="M38 9.53125V1.375" stroke="white" stroke-width="2" stroke-linecap="round"/>
<path d="M55.3021 16.698L61.0694 10.9306" stroke="white" stroke-width="2" stroke-linecap="round"/>
<path d="M62.4688 34H70.625" stroke="white" stroke-width="2" stroke-linecap="round"/>
<path d="M55.3021 51.302L61.0694 57.0694" stroke="white" stroke-width="2" stroke-linecap="round"/>
<path d="M38 47.5938C45.5076 47.5938 51.5938 41.5076 51.5938 34C51.5938 26.4924 45.5076 20.4062 38 20.4062C30.4924 20.4062 24.4062 26.4924 24.4062 34C24.4062 41.5076 30.4924 47.5938 38 47.5938Z" fill="white" stroke="white" stroke-width="2"/>
</g>
</g>
<defs>
<filter id="filter0_d" x="0.375" y="0.375" width="75.25" height="75.25" filterUnits="userSpaceOnUse" color-interpolation-filters="sRGB">
<feFlood flood-opacity="0" result="BackgroundImageFix"/>
<feColorMatrix in="SourceAlpha" type="matrix" values="0 0 0 0 0 0 0 0 0 0 0 0 0 0 0 0 0 0 127 0"/>
<feOffset dy="4"/>
<feGaussianBlur stdDeviation="2"/>
<feColorMatrix type="matrix" values="0 0 0 0 0 0 0 0 0 0 0 0 0 0 0 0 0 0 0.25 0"/>
<feBlend mode="normal" in2="BackgroundImageFix" result="effect1_dropShadow"/>
<feBlend mode="normal" in="SourceGraphic" in2="effect1_dropShadow" result="shape"/>
</filter>
<filter id="filter1_i" x="4.375" y="0.375" width="67.25" height="71.25" filterUnits="userSpaceOnUse" color-interpolation-filters="sRGB">
<feFlood flood-opacity="0" result="BackgroundImageFix"/>
<feBlend mode="normal" in="SourceGraphic" in2="BackgroundImageFix" result="shape"/>
<feColorMatrix in="SourceAlpha" type="matrix" values="0 0 0 0 0 0 0 0 0 0 0 0 0 0 0 0 0 0 127 0" result="hardAlpha"/>
<feOffset dy="4"/>
<feGaussianBlur stdDeviation="2"/>
<feComposite in2="hardAlpha" operator="arithmetic" k2="-1" k3="1"/>
<feColorMatrix type="matrix" values="0 0 0 0 0.106944 0 0 0 0 0.417083 0 0 0 0 0.641667 0 0 0 0.35 0"/>
<feBlend mode="normal" in2="shape" result="effect1_innerShadow"/>
</filter>
</defs>
</svg>
