<svg width="169" height="122" viewBox="0 0 169 122" fill="none" xmlns="http://www.w3.org/2000/svg">
<g filter="url(#filter0_di)">
<path d="M163.988 70.9344C163.988 47.7906 145.372 29.6781 122.731 29.6781C117.7 29.6781 113.172 30.6844 108.644 32.1938C107.134 15.0875 93.0469 1 75.4375 1C56.8219 1 41.7281 16.0938 41.7281 34.7094C41.7281 38.7344 42.7344 42.7594 43.7406 46.2812C42.2313 45.7781 40.2188 45.7781 38.7094 45.7781C20.0938 45.7781 5 60.8719 5 79.4875C5 97.6 19.5906 112.694 37.7031 113.197H124.241C146.378 110.681 163.988 93.0719 163.988 70.9344Z" fill="white" stroke="white" stroke-width="1.2" stroke-linejoin="round"/>
</g>
<path d="M56.553 83.453C56.553 81.451 56.058 79.911 55.068 78.833C54.078 77.755 52.758 77.216 51.108 77.216C50.184 77.216 49.458 77.249 48.93 77.315C48.424 77.381 48.017 77.458 47.709 77.546V88.37C48.083 88.678 48.622 88.975 49.326 89.261C50.03 89.547 50.8 89.69 51.636 89.69C52.516 89.69 53.264 89.536 53.88 89.228C54.518 88.898 55.035 88.458 55.431 87.908C55.827 87.336 56.113 86.676 56.289 85.928C56.465 85.158 56.553 84.333 56.553 83.453ZM59.754 83.453C59.754 84.751 59.578 85.95 59.226 87.05C58.896 88.15 58.401 89.096 57.741 89.888C57.081 90.68 56.267 91.296 55.299 91.736C54.353 92.176 53.264 92.396 52.032 92.396C51.042 92.396 50.162 92.264 49.392 92C48.644 91.736 48.083 91.483 47.709 91.241V98.105H44.64V75.368C45.366 75.192 46.268 75.005 47.346 74.807C48.446 74.587 49.711 74.477 51.141 74.477C52.461 74.477 53.649 74.686 54.705 75.104C55.761 75.522 56.663 76.116 57.411 76.886C58.159 77.656 58.731 78.602 59.127 79.724C59.545 80.824 59.754 82.067 59.754 83.453ZM69.8806 89.789C70.6066 89.789 71.2446 89.778 71.7946 89.756C72.3666 89.712 72.8396 89.646 73.2136 89.558V84.443C72.9936 84.333 72.6306 84.245 72.1246 84.179C71.6406 84.091 71.0466 84.047 70.3426 84.047C69.8806 84.047 69.3856 84.08 68.8576 84.146C68.3516 84.212 67.8786 84.355 67.4386 84.575C67.0206 84.773 66.6686 85.059 66.3826 85.433C66.0966 85.785 65.9536 86.258 65.9536 86.852C65.9536 87.952 66.3056 88.722 67.0096 89.162C67.7136 89.58 68.6706 89.789 69.8806 89.789ZM69.6166 74.411C70.8486 74.411 71.8826 74.576 72.7186 74.906C73.5766 75.214 74.2586 75.665 74.7646 76.259C75.2926 76.831 75.6666 77.524 75.8866 78.338C76.1066 79.13 76.2166 80.01 76.2166 80.978V91.703C75.9526 91.747 75.5786 91.813 75.0946 91.901C74.6326 91.967 74.1046 92.033 73.5106 92.099C72.9166 92.165 72.2676 92.22 71.5636 92.264C70.8816 92.33 70.1996 92.363 69.5176 92.363C68.5496 92.363 67.6586 92.264 66.8446 92.066C66.0306 91.868 65.3266 91.56 64.7326 91.142C64.1386 90.702 63.6766 90.13 63.3466 89.426C63.0166 88.722 62.8516 87.875 62.8516 86.885C62.8516 85.939 63.0386 85.125 63.4126 84.443C63.8086 83.761 64.3366 83.211 64.9966 82.793C65.6566 82.375 66.4266 82.067 67.3066 81.869C68.1866 81.671 69.1106 81.572 70.0786 81.572C70.3866 81.572 70.7056 81.594 71.0356 81.638C71.3656 81.66 71.6736 81.704 71.9596 81.77C72.2676 81.814 72.5316 81.858 72.7516 81.902C72.9716 81.946 73.1256 81.979 73.2136 82.001V81.143C73.2136 80.637 73.1586 80.142 73.0486 79.658C72.9386 79.152 72.7406 78.712 72.4546 78.338C72.1686 77.942 71.7726 77.634 71.2666 77.414C70.7826 77.172 70.1446 77.051 69.3526 77.051C68.3406 77.051 67.4496 77.128 66.6796 77.282C65.9316 77.414 65.3706 77.557 64.9966 77.711L64.6336 75.17C65.0296 74.994 65.6896 74.829 66.6136 74.675C67.5376 74.499 68.5386 74.411 69.6166 74.411ZM92.4018 78.47C92.0278 78.162 91.4888 77.865 90.7848 77.579C90.0808 77.293 89.3108 77.15 88.4748 77.15C87.5948 77.15 86.8358 77.315 86.1978 77.645C85.5818 77.953 85.0758 78.393 84.6798 78.965C84.2838 79.515 83.9978 80.175 83.8218 80.945C83.6458 81.715 83.5578 82.54 83.5578 83.42C83.5578 85.422 84.0528 86.973 85.0428 88.073C86.0328 89.151 87.3528 89.69 89.0028 89.69C89.8388 89.69 90.5318 89.657 91.0818 89.591C91.6538 89.503 92.0938 89.415 92.4018 89.327V78.47ZM92.4018 66.92L95.4708 66.392V91.505C94.7668 91.703 93.8648 91.901 92.7648 92.099C91.6648 92.297 90.3998 92.396 88.9698 92.396C87.6498 92.396 86.4618 92.187 85.4058 91.769C84.3498 91.351 83.4478 90.757 82.6998 89.987C81.9518 89.217 81.3688 88.282 80.9508 87.182C80.5548 86.06 80.3568 84.806 80.3568 83.42C80.3568 82.1 80.5218 80.89 80.8518 79.79C81.2038 78.69 81.7098 77.744 82.3698 76.952C83.0298 76.16 83.8328 75.544 84.7788 75.104C85.7468 74.664 86.8468 74.444 88.0788 74.444C89.0688 74.444 89.9378 74.576 90.6858 74.84C91.4558 75.104 92.0278 75.357 92.4018 75.599V66.92ZM106.554 89.789C107.28 89.789 107.918 89.778 108.468 89.756C109.04 89.712 109.513 89.646 109.887 89.558V84.443C109.667 84.333 109.304 84.245 108.798 84.179C108.314 84.091 107.72 84.047 107.016 84.047C106.554 84.047 106.059 84.08 105.531 84.146C105.025 84.212 104.552 84.355 104.112 84.575C103.694 84.773 103.342 85.059 103.056 85.433C102.77 85.785 102.627 86.258 102.627 86.852C102.627 87.952 102.979 88.722 103.683 89.162C104.387 89.58 105.344 89.789 106.554 89.789ZM106.29 74.411C107.522 74.411 108.556 74.576 109.392 74.906C110.25 75.214 110.932 75.665 111.438 76.259C111.966 76.831 112.34 77.524 112.56 78.338C112.78 79.13 112.89 80.01 112.89 80.978V91.703C112.626 91.747 112.252 91.813 111.768 91.901C111.306 91.967 110.778 92.033 110.184 92.099C109.59 92.165 108.941 92.22 108.237 92.264C107.555 92.33 106.873 92.363 106.191 92.363C105.223 92.363 104.332 92.264 103.518 92.066C102.704 91.868 102 91.56 101.406 91.142C100.812 90.702 100.35 90.13 100.02 89.426C99.6904 88.722 99.5254 87.875 99.5254 86.885C99.5254 85.939 99.7124 85.125 100.086 84.443C100.482 83.761 101.01 83.211 101.67 82.793C102.33 82.375 103.1 82.067 103.98 81.869C104.86 81.671 105.784 81.572 106.752 81.572C107.06 81.572 107.379 81.594 107.709 81.638C108.039 81.66 108.347 81.704 108.633 81.77C108.941 81.814 109.205 81.858 109.425 81.902C109.645 81.946 109.799 81.979 109.887 82.001V81.143C109.887 80.637 109.832 80.142 109.722 79.658C109.612 79.152 109.414 78.712 109.128 78.338C108.842 77.942 108.446 77.634 107.94 77.414C107.456 77.172 106.818 77.051 106.026 77.051C105.014 77.051 104.123 77.128 103.353 77.282C102.605 77.414 102.044 77.557 101.67 77.711L101.307 75.17C101.703 74.994 102.363 74.829 103.287 74.675C104.211 74.499 105.212 74.411 106.29 74.411ZM120.155 71.177C118.703 71.177 117.284 71.551 115.898 72.299L115.04 69.923C115.788 69.527 116.624 69.208 117.548 68.966C118.494 68.724 119.495 68.603 120.551 68.603C121.805 68.603 122.828 68.779 123.62 69.131C124.434 69.461 125.083 69.89 125.567 70.418C126.051 70.946 126.381 71.54 126.557 72.2C126.755 72.838 126.854 73.454 126.854 74.048C126.854 74.796 126.711 75.467 126.425 76.061C126.139 76.633 125.787 77.172 125.369 77.678C124.951 78.184 124.489 78.668 123.983 79.13C123.477 79.592 123.015 80.076 122.597 80.582C122.179 81.066 121.827 81.605 121.541 82.199C121.255 82.771 121.112 83.42 121.112 84.146C121.112 84.256 121.112 84.377 121.112 84.509C121.112 84.641 121.123 84.762 121.145 84.872H118.571C118.483 84.432 118.439 83.97 118.439 83.486C118.439 82.782 118.56 82.144 118.802 81.572C119.066 81 119.396 80.472 119.792 79.988C120.188 79.482 120.606 79.02 121.046 78.602C121.486 78.162 121.904 77.722 122.3 77.282C122.696 76.842 123.015 76.38 123.257 75.896C123.521 75.412 123.653 74.884 123.653 74.312C123.653 73.388 123.356 72.64 122.762 72.068C122.168 71.474 121.299 71.177 120.155 71.177ZM122.234 90.218C122.234 90.812 122.036 91.329 121.64 91.769C121.244 92.209 120.705 92.429 120.023 92.429C119.341 92.429 118.802 92.209 118.406 91.769C118.01 91.329 117.812 90.812 117.812 90.218C117.812 89.624 118.01 89.107 118.406 88.667C118.802 88.227 119.341 88.007 120.023 88.007C120.705 88.007 121.244 88.227 121.64 88.667C122.036 89.107 122.234 89.624 122.234 90.218Z" fill="#003C67"/>
<defs>
<filter id="filter0_di" x="0.400024" y="0.400002" width="168.188" height="121.397" filterUnits="userSpaceOnUse" color-interpolation-filters="sRGB">
<feFlood flood-opacity="0" result="BackgroundImageFix"/>
<feColorMatrix in="SourceAlpha" type="matrix" values="0 0 0 0 0 0 0 0 0 0 0 0 0 0 0 0 0 0 127 0"/>
<feOffset dy="4"/>
<feGaussianBlur stdDeviation="2"/>
<feColorMatrix type="matrix" values="0 0 0 0 0 0 0 0 0 0 0 0 0 0 0 0 0 0 0.25 0"/>
<feBlend mode="normal" in2="BackgroundImageFix" result="effect1_dropShadow"/>
<feBlend mode="normal" in="SourceGraphic" in2="effect1_dropShadow" result="shape"/>
<feColorMatrix in="SourceAlpha" type="matrix" values="0 0 0 0 0 0 0 0 0 0 0 0 0 0 0 0 0 0 127 0" result="hardAlpha"/>
<feOffset dy="4"/>
<feGaussianBlur stdDeviation="2"/>
<feComposite in2="hardAlpha" operator="arithmetic" k2="-1" k3="1"/>
<feColorMatrix type="matrix" values="0 0 0 0 0.106944 0 0 0 0 0.417083 0 0 0 0 0.641667 0 0 0 0.35 0"/>
<feBlend mode="normal" in2="shape" result="effect2_innerShadow"/>
</filter>
</defs>
</svg>
