<svg width="71" height="73" viewBox="0 0 71 73" fill="none" xmlns="http://www.w3.org/2000/svg">
<g filter="url(#filter0_d)">
<g filter="url(#filter1_i)">
<path d="M65.7375 27.9031C65.7375 19.1344 58.6844 12.2719 50.1062 12.2719C48.2 12.2719 46.4844 12.6531 44.7687 13.225C44.1969 6.74375 38.8594 1.40625 32.1875 1.40625C25.1344 1.40625 19.4156 7.125 19.4156 14.1781C19.4156 15.7031 19.7969 17.2281 20.1781 18.5625C19.6062 18.3719 18.8437 18.3719 18.2719 18.3719C11.2187 18.3719 5.5 24.0906 5.5 31.1437C5.5 38.0062 11.0281 43.725 17.8906 43.9156H50.6781C59.0656 42.9625 65.7375 36.2906 65.7375 27.9031Z" fill="white" stroke="white" stroke-width="1.2" stroke-linejoin="round"/>
</g>
<path d="M18.6531 50.9688V60.5" stroke="white" stroke-width="1.2" stroke-linecap="round"/>
<path d="M22.0229 52.3646L15.2833 59.1042" stroke="white" stroke-linecap="round"/>
<path d="M23.4187 55.7344H13.8875" stroke="white" stroke-linecap="round"/>
<path d="M22.0229 59.1042L15.2833 52.3646" stroke="white" stroke-linecap="round"/>
<path d="M33.9031 54.7812V64.3125" stroke="white" stroke-width="1.2" stroke-linecap="round"/>
<path d="M37.2729 56.1771L30.5333 62.9167" stroke="white" stroke-linecap="round"/>
<path d="M38.6687 59.5469H29.1375" stroke="white" stroke-linecap="round"/>
<path d="M37.2729 62.9167L30.5333 56.1771" stroke="white" stroke-linecap="round"/>
<path d="M51.0593 50.9688V60.5" stroke="white" stroke-width="1.2" stroke-linecap="round"/>
<path d="M54.4292 52.3646L47.6896 59.1042" stroke="white" stroke-linecap="round"/>
<path d="M55.825 55.7344H46.2937" stroke="white" stroke-linecap="round"/>
<path d="M54.4292 59.1042L47.6896 52.3646" stroke="white" stroke-linecap="round"/>
</g>
<defs>
<filter id="filter0_d" x="0.899902" y="0.806244" width="69.4375" height="72.1063" filterUnits="userSpaceOnUse" color-interpolation-filters="sRGB">
<feFlood flood-opacity="0" result="BackgroundImageFix"/>
<feColorMatrix in="SourceAlpha" type="matrix" values="0 0 0 0 0 0 0 0 0 0 0 0 0 0 0 0 0 0 127 0"/>
<feOffset dy="4"/>
<feGaussianBlur stdDeviation="2"/>
<feColorMatrix type="matrix" values="0 0 0 0 0 0 0 0 0 0 0 0 0 0 0 0 0 0 0.25 0"/>
<feBlend mode="normal" in2="BackgroundImageFix" result="effect1_dropShadow"/>
<feBlend mode="normal" in="SourceGraphic" in2="effect1_dropShadow" result="shape"/>
</filter>
<filter id="filter1_i" x="4.8999" y="0.806244" width="61.4375" height="47.7094" filterUnits="userSpaceOnUse" color-interpolation-filters="sRGB">
<feFlood flood-opacity="0" result="BackgroundImageFix"/>
<feBlend mode="normal" in="SourceGraphic" in2="BackgroundImageFix" result="shape"/>
<feColorMatrix in="SourceAlpha" type="matrix" values="0 0 0 0 0 0 0 0 0 0 0 0 0 0 0 0 0 0 127 0" result="hardAlpha"/>
<feOffset dy="4"/>
<feGaussianBlur stdDeviation="2"/>
<feComposite in2="hardAlpha" operator="arithmetic" k2="-1" k3="1"/>
<feColorMatrix type="matrix" values="0 0 0 0 0.106944 0 0 0 0 0.417083 0 0 0 0 0.641667 0 0 0 0.35 0"/>
<feBlend mode="normal" in2="shape" result="effect1_innerShadow"/>
</filter>
</defs>
</svg>
